<?xml version="1.0" encoding="UTF-8"?>
<svg width="512" height="512" viewBox="0 0 512 512" fill="none" xmlns="http://www.w3.org/2000/svg">
    <!-- Background -->
    <rect width="512" height="512" rx="128" fill="#1976D2"/>
    
    <!-- Newspaper Icon -->
    <g transform="translate(96, 96) scale(1.3)">
        <path d="M224 96l16-32 32-16v64h-48zM240 140v172M76 140h328M76 188h328M76 236h328M76 284h176" 
            stroke="white" stroke-width="24" stroke-linecap="round" stroke-linejoin="round"/>
        <path d="M48 96v224c0 26.51 21.49 48 48 48h256c26.51 0 48-21.49 48-48V96c0-26.51-21.49-48-48-48H96c-26.51 0-48 21.49-48 48z" 
            stroke="white" stroke-width="24" stroke-linecap="round" stroke-linejoin="round" fill="none"/>
    </g>
</svg> 